<svg data-v-6805eed4="" version="1.0" xmlns="http://www.w3.org/2000/svg" xmlns:xlink="http://www.w3.org/1999/xlink" width="100%" height="100%" viewBox="0 0 340.000000 250.000000" preserveAspectRatio="xMidYMid meet" color-interpolation-filters="sRGB" style="margin: auto;">   <g data-v-6805eed4="" fill="#00FF80" class="icon-text-wrapper icon-svg-group iconsvg" transform="translate(103.83000183105469,105.81374168395996)"><g class="iconsvg-imagesvg" transform="translate(0,0)"><g><rect fill="#00FF80" fill-opacity="0" stroke-width="2" x="0" y="0" width="25.200000000000017" height="38.372517968083834" class="image-rect"></rect> <svg filter="url(#colors2651960148)" x="0" y="0" width="25.200000000000017" height="38.372517968083834" filtersec="colorsf131478509" class="image-svg-svg primary" style="overflow: visible;"><svg xmlns="http://www.w3.org/2000/svg" xmlns:xlink="http://www.w3.org/1999/xlink" version="1.1" x="0px" y="0px" viewBox="20.329002380371094 4.963000297546387 59.16200256347656 90.08700561523438" enable-background="new 0 0 100 100" xml:space="preserve"><path d="M58.359,95.05H41.254v-7.447c-5.06-0.986-9.33-2.809-12.708-5.424c-5.457-4.314-8.217-10.265-8.217-17.694v-1.651h16.503  l0.18,1.447c0.309,2.478,1.069,4.438,2.258,5.825c0.53,0.626,1.193,1.175,1.984,1.643V57.226c-4.188-1.24-10.324-3.208-12.293-4.604  c-5.026-3.483-7.575-8.859-7.575-15.978c0-6.57,2.438-12.083,7.246-16.384c3.201-2.871,7.442-4.79,12.622-5.717v-9.58h17.105v10.023  c3.924,0.958,7.428,2.579,10.426,4.83c5.447,4.053,8.338,9.934,8.59,17.477L77.432,39H60.598l-0.092-1.556  c-0.123-2.124-0.922-4.209-2.146-5.828v12.8l2.258,0.492c5.445,1.362,9.447,3.071,12.24,5.229c4.408,3.5,6.633,8.56,6.633,15.051  c0,6.694-2.561,12.329-7.611,16.749l-0.027,0.022c-3.459,2.902-7.994,4.873-13.492,5.871V95.05z M44.557,91.745h10.5v-6.742  l1.41-0.208c5.518-0.813,9.975-2.613,13.248-5.354c4.355-3.816,6.473-8.479,6.473-14.252c0-5.51-1.756-9.583-5.367-12.451  c-2.369-1.829-6.068-3.388-10.979-4.618l-4.785-1.04v-22l2.479,1.434c3.078,1.78,5.402,5.346,6.084,9.183h10.346  c-0.549-5.726-2.9-10.066-7.156-13.233c-2.943-2.208-6.449-3.731-10.426-4.534l-1.326-0.266V8.268h-10.5v9.123l-1.423,0.198  c-5.167,0.722-9.305,2.449-12.298,5.131C26.7,26.42,24.69,30.976,24.69,36.644c0,6.058,2.015,10.398,6.16,13.268l0.02,0.014  c1.224,0.875,6.128,2.632,12.495,4.477l1.192,0.346v21.848l-2.179-0.734c-2.383-0.804-4.275-2.019-5.623-3.612  c-1.356-1.581-2.292-3.634-2.789-6.112H23.684c0.362,5.657,2.628,10.065,6.897,13.44c3.229,2.499,7.467,4.188,12.585,5.011  l1.391,0.224V91.745z M55.057,76.606V56.918l2.168,0.713c2.109,0.692,3.711,1.376,4.9,2.089l0.047,0.03  c2.453,1.588,3.75,3.896,3.75,6.673c0,3.1-1.227,7.229-7.063,9.3c-0.539,0.212-1.16,0.387-1.846,0.516L55.057,76.606z   M58.359,61.556v10.821c2.902-1.197,4.258-3.103,4.258-5.954c0-1.662-0.703-2.897-2.217-3.884  C59.861,62.219,59.178,61.889,58.359,61.556z M44.557,44.651l-2.141-0.664c-1.717-0.532-2.955-1.02-3.785-1.489  c-2.751-1.458-4.206-3.847-4.206-6.912c0-3.245,1.424-5.861,4.118-7.563l0.033-0.02c1.092-0.655,2.379-1.224,3.823-1.689  l2.159-0.695V44.651z M40.291,30.827c-1.748,1.11-2.562,2.623-2.562,4.759c0,1.845,0.784,3.117,2.465,4.001l0.051,0.028  c0.204,0.118,0.522,0.274,1.009,0.471v-9.775C40.913,30.475,40.591,30.646,40.291,30.827z"></path></svg></svg> <defs><filter id="colors2651960148"><feColorMatrix type="matrix" values="0 0 0 0 0  0 0 0 0 0  0 0 0 0 0.99609375  0 0 0 1 0" class="icon-fecolormatrix"></feColorMatrix></filter> <filter id="colorsf131478509"><feColorMatrix type="matrix" values="0 0 0 0 0.99609375  0 0 0 0 0.99609375  0 0 0 0 0.99609375  0 0 0 1 0" class="icon-fecolormatrix"></feColorMatrix></filter> <filter id="colorsb5836654705"><feColorMatrix type="matrix" values="0 0 0 0 0  0 0 0 0 0  0 0 0 0 0  0 0 0 1 0" class="icon-fecolormatrix"></feColorMatrix></filter></defs></g></g> <g transform="translate(32.20000076293945,0.47325897216796875)"><g data-gra="path-name" fill-rule="" class="tp-name iconsvg-namesvg" transform="translate(0,0)"><g transform="scale(1)"><g><path d="M1.88 0L1.88-21.77 9.46-21.77Q12.7-21.77 12.7-18.71L12.7-18.71 12.7-3.06Q12.7 0 9.46 0L9.46 0 1.88 0ZM9.53-3.48L9.53-3.48 9.53-18.3Q9.53-18.92 9.32-19.11 9.11-19.3 8.49-19.3L8.49-19.3 5.04-19.3 5.04-2.47 8.49-2.47Q9.11-2.47 9.32-2.66 9.53-2.85 9.53-3.48ZM18.89-16.97L18.89-16.97 22.61-16.97Q25.84-16.97 25.84-13.88L25.84-13.88 25.84-3.06Q25.84 0 22.61 0L22.61 0 18.89 0Q15.69 0 15.69-3.06L15.69-3.06 15.69-13.88Q15.69-16.97 18.89-16.97ZM22.75-3.51L22.75-3.51 22.75-13.46Q22.75-14.09 22.54-14.3 22.33-14.5 21.7-14.5L21.7-14.5 19.79-14.5Q19.17-14.5 18.97-14.3 18.78-14.09 18.78-13.46L18.78-13.46 18.78-3.51Q18.78-2.89 18.97-2.68 19.17-2.47 19.79-2.47L19.79-2.47 21.7-2.47Q22.33-2.47 22.54-2.68 22.75-2.89 22.75-3.51ZM31.86-23.27L31.86 0 28.73 0 28.73-23.27 31.86-23.27ZM41.25-15.62L41.25-16.97 44.38-16.97 44.38 0 41.25 0 41.25-1.36Q40.8 0 39.1 0L39.1 0 37.84 0Q34.71 0 34.71-3.06L34.71-3.06 34.71-13.88Q34.71-16.97 37.84-16.97L37.84-16.97 39.1-16.97Q40.8-16.97 41.25-15.62L41.25-15.62ZM38.89-2.54L38.89-2.54 40.1-2.54Q40.73-2.54 40.99-2.82 41.25-3.1 41.25-3.76L41.25-3.76 41.25-13.22Q41.25-13.88 40.99-14.16 40.73-14.43 40.1-14.43L40.1-14.43 38.89-14.43Q38.26-14.43 38.05-14.24 37.84-14.05 37.84-13.43L37.84-13.43 37.84-3.55Q37.84-2.92 38.05-2.73 38.26-2.54 38.89-2.54ZM53.32-17.01L53.32-17.01 54.02-17.01 54.02-14.3 52.77-14.3Q50.57-14.3 50.57-11.72L50.57-11.72 50.57 0 47.44 0 47.44-16.97 50.57-16.97 50.57-14.89Q50.85-15.79 51.57-16.4 52.28-17.01 53.32-17.01ZM66.05-17.01L66.05-17.01 67.27-17.01Q70.43-17.01 70.43-13.91L70.43-13.91 70.43-3.06Q70.43 0 67.27 0L67.27 0 66.05 0Q64.35 0 63.9-1.36L63.9-1.36 63.9 0 60.77 0 60.77-23.27 63.9-23.27 63.9-15.65Q64.35-17.01 66.05-17.01ZM67.3-3.55L67.3-3.55 67.3-13.46Q67.3-14.05 67.1-14.26 66.89-14.47 66.26-14.47L66.26-14.47 65.04-14.47Q64.42-14.47 64.16-14.19 63.9-13.91 63.9-13.25L63.9-13.25 63.9-3.76Q63.9-3.1 64.16-2.82 64.42-2.54 65.04-2.54L65.04-2.54 66.26-2.54Q66.89-2.54 67.1-2.73 67.3-2.92 67.3-3.55ZM76.42-23.27L76.42 0 73.29 0 73.29-23.27 76.42-23.27ZM85.98-3.76L85.98-16.97 89.11-16.97 89.11 0 85.98 0 85.98-1.36Q85.53 0 83.83 0L83.83 0 82.57 0Q79.44 0 79.44-3.06L79.44-3.06 79.44-16.97 82.57-16.97 82.57-3.55Q82.57-2.92 82.78-2.73 82.99-2.54 83.62-2.54L83.62-2.54 84.83-2.54Q85.46-2.54 85.72-2.82 85.98-3.1 85.98-3.76L85.98-3.76ZM95.34-16.97L95.34-16.97 98.75-16.97Q102.02-16.97 102.02-13.88L102.02-13.88 102.02-7.51 95.17-7.51 95.17-3.48Q95.17-2.89 95.37-2.68 95.58-2.47 96.21-2.47L96.21-2.47 97.81-2.47Q98.43-2.47 98.64-2.68 98.85-2.89 98.85-3.51L98.85-3.51 98.85-4.9 101.91-4.9 101.91-3.06Q101.91 0 98.68 0L98.68 0 95.34 0Q92.1 0 92.1-3.06L92.1-3.06 92.1-13.88Q92.1-16.97 95.34-16.97ZM95.17-13.5L95.17-9.81 98.92-9.81 98.92-13.5Q98.92-14.09 98.73-14.3 98.54-14.5 97.91-14.5L97.91-14.5 96.21-14.5Q95.58-14.5 95.37-14.3 95.17-14.09 95.17-13.5L95.17-13.5Z" transform="translate(-1.8799999952316284, 23.270000457763672)"></path></g> <!----> <!----> <!----> <!----> <!----> <!----> <!----></g></g> <g data-gra="path-slogan" fill-rule="" class="tp-slogan iconsvg-slogansvg" fill="#000000" transform="translate(5,29.270000457763672)"><rect x="0" height="1" y="3.580000400543213" width="31.969999313354492"></rect> <rect height="1" y="3.580000400543213" width="31.969999313354492" x="58.170000076293945"></rect> <g transform="translate(34.96999931335449,0)"><g transform="scale(1)"><path d="M1.08-7.87L1.08 0L2.08 0L2.08-3.71L5.74-3.71L5.74 0L6.74 0L6.74-7.87L5.74-7.87L5.74-4.57L2.08-4.57L2.08-7.87ZM11.81 0.14C12.30 0.14 12.76 0.05 13.17-0.14C13.58-0.34 13.94-0.61 14.24-0.97C14.54-1.32 14.77-1.75 14.93-2.26C15.10-2.77 15.18-3.34 15.18-3.97C15.18-4.60 15.10-5.16 14.93-5.66C14.77-6.16 14.54-6.58 14.24-6.93C13.94-7.28 13.58-7.55 13.17-7.73C12.76-7.92 12.30-8.02 11.81-8.02C11.31-8.02 10.86-7.92 10.45-7.74C10.03-7.56 9.68-7.29 9.38-6.94C9.09-6.59 8.86-6.17 8.69-5.67C8.53-5.17 8.45-4.60 8.45-3.97C8.45-3.34 8.53-2.77 8.69-2.26C8.86-1.75 9.09-1.32 9.38-0.97C9.68-0.61 10.03-0.34 10.45-0.14C10.86 0.05 11.31 0.14 11.81 0.14ZM11.81-0.73C11.46-0.73 11.14-0.81 10.85-0.96C10.57-1.11 10.33-1.33 10.12-1.61C9.92-1.90 9.76-2.24 9.65-2.63C9.54-3.03 9.48-3.48 9.48-3.97C9.48-4.46 9.54-4.90 9.65-5.29C9.76-5.68 9.92-6.02 10.12-6.29C10.33-6.56 10.57-6.77 10.85-6.92C11.14-7.07 11.46-7.14 11.81-7.14C12.16-7.14 12.48-7.07 12.76-6.92C13.05-6.77 13.29-6.56 13.49-6.29C13.70-6.02 13.86-5.68 13.97-5.29C14.08-4.90 14.14-4.46 14.14-3.97C14.14-3.48 14.08-3.03 13.97-2.63C13.86-2.24 13.70-1.90 13.49-1.61C13.29-1.33 13.05-1.11 12.76-0.96C12.48-0.81 12.16-0.73 11.81-0.73ZM17.90-3.05L17.90 0L18.91 0L18.91-3.05L21.28-7.87L20.23-7.87L19.22-5.65C19.10-5.36 18.98-5.08 18.84-4.80C18.70-4.52 18.57-4.23 18.43-3.94L18.38-3.94C18.25-4.23 18.12-4.52 18-4.80C17.88-5.08 17.76-5.36 17.63-5.65L16.61-7.87L15.54-7.87Z" transform="translate(-1.08, 8.016)"></path></g></g></g></g></g><defs v-gra="od"></defs></svg>