<svg width="130" height="130" viewBox="0 0 130 130" fill="none" xmlns="http://www.w3.org/2000/svg">
<g clip-path="url(#clip0_37_628)">
<path d="M74.5891 83.6727C73.7269 84.0034 72.8199 84.2021 71.8986 84.2619C71.7065 84.2825 71.5123 84.2649 71.3271 84.2101C71.1419 84.1553 70.9693 84.0644 70.8192 83.9425C70.6691 83.8207 70.5445 83.6704 70.4525 83.5002C70.3605 83.33 70.303 83.1433 70.2831 82.9507C70.1984 80.5619 72.6348 78.2208 74.5203 74.2607C75.6995 72.0593 76.313 69.5981 76.3051 67.0995C76.2814 66.4583 76.1909 65.8214 76.035 65.1991C83.8525 62.7996 88.2803 57.1779 88.0261 50.1548C88.0032 47.5932 87.2033 45.0993 85.7327 43.0042C88.7329 40.5702 92.4462 39.1885 96.3043 39.0706C100.589 38.9167 103.391 41.194 103.513 44.48C103.635 48.0261 100.632 49.8363 100.679 51.0731C100.679 51.2058 100.753 51.2696 100.896 51.2642C102.12 51.2218 104.784 47.5483 104.662 44.2995C104.524 40.419 101.23 37.8762 95.6582 38.0726C92.0566 38.2053 88.561 39.559 84.9012 42.0062C81.2837 38.1098 75.283 35.8696 68.207 36.1244C58.1438 36.4854 48.8169 40.5729 40.7187 48.3711C34.5272 54.3273 31.4818 60.655 31.6724 65.9688C31.879 71.8347 36.4392 75.5666 42.9061 75.333C45.3368 75.2104 47.7188 74.6041 49.9132 73.5493C52.5614 74.7225 55.448 74.9455 57.789 73.9528C62.4657 71.9674 61.3534 69.8971 60.4901 69.5627C59.8016 69.2972 58.5516 69.2707 58.594 70.2475C58.6364 71.1074 59.4361 71.3092 59.8016 70.9482C60.167 70.5872 60.4001 70.5819 60.6278 70.8632C60.8556 71.1446 59.6745 72.5726 57.7678 73.2149C55.5105 74.0676 53.015 74.0335 50.7818 73.1194C54.0184 71.3941 56.9179 69.0977 59.3408 66.3404C64.4571 60.6975 67.1424 54.0459 66.9941 49.884C66.867 46.3592 64.7696 44.1455 61.3852 44.1615C61.1991 44.1372 61.0115 44.1265 60.8238 44.1296C56.9732 44.1784 53.2548 45.5437 50.284 47.9995C43.2345 53.7433 41.6191 60.7877 43.4304 66.5156C44.1584 68.7465 45.5616 70.6947 47.4451 72.0895C45.6521 73.1536 43.6386 73.7894 41.5608 73.9475C36.5981 74.128 32.9436 71.049 32.7635 65.9847C32.5622 60.3259 36.471 53.2443 44.2673 46.7255C51.4121 40.7375 59.6745 37.5046 67.9739 37.2073C74.7745 36.9631 80.2245 38.8848 83.9055 42.6379C76.4905 47.6173 70.7492 55.7499 64.7961 66.4784C60.2465 74.627 56.5973 81.0396 49.1241 83.5612C42.1858 81.8943 36.9 80.7211 32.8853 80.8698C29.0772 81.0078 27.0593 82.3668 27.1387 83.9381C27.2129 86.0615 31.0051 87.2134 38.3512 86.9533C41.4517 86.8203 44.5231 86.2959 47.4928 85.3926C49.3266 86.0032 51.2436 86.3255 53.1758 86.3482C57.0528 86.2101 60.8609 84.092 60.8291 83.1365C60.8291 83.0038 60.6861 82.8764 60.4107 82.8817C59.5262 82.9136 58.1385 84.1929 55.4215 84.2938C54.1599 84.2941 52.901 84.1768 51.661 83.9434C59.9658 80.2274 65.0609 72.8486 70.9028 62.9323C70.8448 63.1032 70.8161 63.2827 70.8181 63.4632C70.8838 64.092 71.1918 64.6702 71.6766 65.0747C72.1613 65.4793 72.7845 65.6782 73.4133 65.6291C73.8256 65.6014 74.2348 65.5393 74.6368 65.4433C74.8433 67.4817 73.4875 69.5786 71.6284 72.7212C69.2451 76.6283 67.8521 79.6223 67.921 82.1332C68.0004 84.3893 69.441 85.95 71.4166 85.881C72.3382 85.8438 74.748 85.6368 79.4353 82.6959C81.4056 81.459 83.8366 79.5639 84.2921 77.3555C84.6523 75.609 84.2338 73.7511 82.825 73.2521C81.4162 72.7531 79.7425 73.2521 79.1546 74.5792C78.2489 76.607 80.4946 78.1571 81.8028 77.3662C83.2275 76.5115 82.5708 74.6057 81.1778 74.834C80.6482 74.9189 80.4946 75.2428 80.5793 75.4392C80.7065 75.7258 81.199 75.97 80.7382 76.2938C80.0603 76.7504 79.4883 75.9806 79.7531 74.9083C79.9597 74.0855 82.7614 72.4983 83.5188 75.264C84.5304 78.9534 78.8156 82.1651 74.552 83.6727M61.8407 45.1966C63.8904 45.3506 65.0556 46.6087 65.1245 48.5888C65.2039 50.8396 63.0854 56.3073 57.9955 62.6351C56.8824 64.0311 55.6923 65.3639 54.431 66.6271C53.3589 66.1147 52.5124 65.2246 52.053 64.1267C51.5233 62.7943 51.6187 60.8355 51.6981 60.0286C51.7776 59.2217 51.6981 58.7174 50.8348 57.9052C50.178 57.2841 49.2724 56.9443 49.5478 55.2509C50.0431 52.6781 51.3591 50.3362 53.2976 48.5781C55.0477 47.1 57.1165 46.0496 59.3408 45.5098C60.1756 45.3305 61.0245 45.2257 61.8778 45.1966H61.8407ZM48.0701 71.564C44.299 68.6602 43.012 61.2814 45.8986 55.2509C47.5641 51.8853 50.092 49.0237 53.2235 46.959C53.8436 46.6014 54.4877 46.2874 55.1514 46.0194C55.1514 46.0194 55.4374 46.1787 53.716 47.3519C52.6144 48.111 49.6007 50.8555 48.9228 54.5927C48.2449 58.3299 49.5054 62.8952 51.7987 65.3849C52.4381 66.079 53.236 66.6072 54.1238 66.9243C52.3326 68.7219 50.3383 70.3039 48.1813 71.6383C48.2025 71.6117 48.1601 71.5905 48.1072 71.564H48.0701ZM38.1182 85.8969C31.8631 86.1252 28.4946 85.3661 28.4416 83.9222C28.4152 83.0993 29.6069 82.1757 31.4447 82.1067C34.9827 81.9793 39.5217 83.0463 45.3001 84.8193C42.9872 85.5144 40.5857 85.8684 38.1711 85.8704L38.1182 85.8969ZM73.3974 64.6948C73.0381 64.7374 72.6764 64.6383 72.3887 64.4183C72.1011 64.1984 71.9101 63.8749 71.8562 63.5163C71.8588 63.4077 71.8833 63.3008 71.9284 63.202C71.9734 63.1033 72.038 63.0147 72.1183 62.9417C72.1985 62.8688 72.2927 62.8129 72.3952 62.7775C72.4976 62.7421 72.6061 62.728 72.7142 62.7359C73.3974 62.7359 73.9589 63.3039 74.409 64.4453C74.1073 64.5836 73.7819 64.6629 73.4504 64.6788L73.3974 64.6948ZM85.987 47.6492C86.2094 53.8495 81.914 61.4513 75.6113 64.063C74.8698 62.4705 73.8847 61.6636 72.6665 61.7114C72.402 61.7185 72.1416 61.7785 71.9006 61.8879C71.6596 61.9973 71.4428 62.1539 71.263 62.3484C71.6178 61.7379 71.9833 61.1274 72.3223 60.4957C75.7225 54.5714 78.9798 48.5835 84.8006 43.6625C85.5683 44.8503 85.98 46.2339 85.987 47.6492Z" fill="#FF0000"/>
<path d="M118.253 48.1163C117.993 47.9093 118.512 47.3359 118.194 47.0546C118.11 46.9813 118.009 46.9309 117.9 46.9082C117.791 46.8855 117.678 46.8911 117.571 46.9247C117.465 46.9582 117.369 47.0185 117.293 47.0998C117.216 47.1811 117.162 47.2807 117.135 47.389C117.045 47.8456 117.824 48.6737 118.846 48.5357C120.064 48.3764 121.319 47.1873 122.145 45.4833C122.966 43.6394 123.281 41.6091 123.056 39.6026C122.832 37.596 122.077 35.686 120.869 34.07C117.31 29.2923 112.755 28.0607 108.968 29.0959C104.853 30.216 102.501 35.0308 103.735 38.3168C104.911 41.4329 106.293 40.7587 106.532 40.2013C106.728 39.7554 106.775 38.9379 106.14 38.9485C105.504 38.9591 105.435 39.4793 105.653 39.7129C105.87 39.9465 105.87 40.1217 105.653 40.2438C105.435 40.3659 104.593 39.5749 104.196 38.3115C103.839 37.241 103.773 36.0942 104.007 34.99C104.241 33.8857 104.765 32.8643 105.525 32.0315C107.517 29.6321 112.368 28.9844 116.224 31.0335C118.378 32.2138 120.181 33.9469 121.446 36.0554C121.663 36.4708 121.852 36.9 122.013 37.34C122.013 37.34 121.902 37.5258 121.176 36.3686C120.093 34.7403 118.461 33.557 116.579 33.0348C114.159 32.504 111.145 33.1994 109.455 34.6274C108.776 35.1742 108.336 35.9641 108.227 36.8304C108.269 37.0109 108.428 36.8304 108.55 36.4004C108.896 35.6639 109.515 35.0923 110.276 34.8079C111.152 34.5737 112.069 34.5338 112.962 34.6911C113.223 34.7462 113.495 34.7256 113.746 34.6316C113.996 34.5376 114.215 34.3741 114.376 34.1602C114.799 33.7408 115.048 33.1622 116.145 33.3905C117.805 33.7955 119.291 34.7263 120.382 36.0447C121.296 37.2317 121.925 38.6141 122.22 40.0845C122.416 41.0984 122.633 44.4534 120.986 46.391C119.338 48.3286 118.253 48.1163 118.253 48.1163Z" fill="#FF0000"/>
<path d="M128.522 46.8688C128.522 46.8688 125.572 47.4899 124.947 47.9305C124.724 48.0757 124.536 48.2704 124.399 48.4995C124.263 48.7287 124.18 48.9862 124.158 49.2523C124.127 49.7464 124.224 50.24 124.439 50.6856C124.672 51.2165 125.747 52.963 126.303 53.7964C126.933 54.7573 127.956 56.2755 128.358 57.1089C129.332 59.0036 129.89 61.0851 129.995 63.2137C130.101 66.282 128.644 70.4014 125.71 72.8062C122.283 75.6144 117.659 74.9296 115.292 73.8679C113.338 72.9601 111.457 71.2136 111.542 70.359C111.622 69.637 112.379 68.8513 112.951 69.6317C113.3 70.274 112.898 70.4864 112.649 70.5448C112.4 70.6032 111.849 70.4864 111.982 70.7571C112.358 71.5587 113.888 72.8221 115.276 73.3689C117.116 74.0553 119.105 74.2386 121.039 73.8997C123.305 73.5494 126.674 71.1924 127.924 68.639C128.983 66.5156 130.042 62.8315 127.998 57.592C127.251 55.6916 125.562 54.2954 124.91 53.7752C123.799 52.8918 122.586 52.1451 121.298 51.5509C120 50.9245 119.344 50.9139 118.703 51.3174C118.062 51.7208 117.114 52.0818 116.542 51.9119C115.458 51.6271 114.35 51.4493 113.232 51.3811C112.169 51.5562 111.15 51.9385 110.234 52.5065C109.704 52.8409 109.704 52.4162 110.011 52.1933C111.472 51.0119 113.23 50.2586 115.091 50.0168C116.83 49.7762 118.601 49.9583 120.255 50.5476C121.536 51.0288 122.75 51.6729 123.867 52.464C124.227 52.7347 125.419 53.7486 125.562 53.8177C125.705 53.8867 125.472 53.4991 125.376 53.2443C125.281 52.9895 122.898 49.5709 122.908 48.6313C122.919 47.6916 123.967 47.3041 125.027 47.1767C125.869 47.0759 126.552 47.044 127.246 46.8954C127.717 46.7945 128.12 46.752 128.369 46.6883C128.618 46.6246 128.671 46.7043 128.522 46.8688Z" fill="#FF0000"/>
<path d="M105.621 53.3877C106.367 53.7009 107.21 55.1235 107.432 55.6066C107.797 56.3376 108.368 56.9449 109.074 57.3531C109.854 57.8312 110.486 58.519 110.896 59.3385C111.224 60.2005 111.335 61.1305 111.219 62.0458C111.089 63.6313 111.494 65.2145 112.368 66.5421C113.205 67.9064 115.17 69.5839 117.998 70.3483C119.911 70.8574 121.942 70.6693 123.729 69.8175C124.79 69.2777 125.645 68.4028 126.16 67.3278C126.594 66.2077 126.69 65.5919 126.488 65.5123C126.287 65.4327 126.266 65.6928 126.165 66.1599C125.911 67.2774 125.257 68.2629 124.328 68.931C122.998 69.775 120 70.4492 117.093 69.2176C114.185 67.9861 112.374 65.8839 112.04 64.8593C111.788 63.9348 111.788 62.9597 112.04 62.0352C112.086 61.8656 112.171 61.7092 112.289 61.5787C112.673 61.8254 112.987 62.1674 113.2 62.5714C114.026 64.1639 114.911 64.9071 116.187 65.1566C117.463 65.4061 119.206 64.509 119.804 64.2754C120.682 63.9395 121.605 63.7356 122.543 63.6702C123.252 63.7021 123.954 63.8307 124.629 64.0524C124.847 64.1374 124.794 63.7764 124.571 63.7286C123.759 63.4928 122.917 63.3801 122.071 63.3942C121.07 63.4844 118.554 64.1215 117.866 64.2329C117.071 64.3657 116.086 63.8773 115.446 63.4207C114.805 62.9642 114.439 62.083 113.682 61.6795C113.283 61.5149 112.865 61.4007 112.437 61.3398C113.117 60.0639 114.226 59.0708 115.567 58.5369C117.855 57.6026 122.029 57.7884 122.606 59.9118C123.041 61.5044 120.774 61.6212 120.382 61.3186C120.306 61.2453 120.251 61.1529 120.222 61.0509C120.194 60.949 120.194 60.8414 120.222 60.7393C120.249 60.6372 120.304 60.5445 120.379 60.4708C120.455 60.3971 120.549 60.3452 120.652 60.3206C120.97 60.3206 120.742 60.6709 120.763 60.8514C120.784 61.0319 121.06 61.0956 121.293 60.9151C121.621 60.6709 121.494 59.8269 120.53 59.8534C119.566 59.88 119.471 61.1062 120.218 61.5521C120.617 61.7241 121.058 61.774 121.486 61.6957C121.914 61.6173 122.309 61.4141 122.622 61.1115C122.835 60.7375 122.918 60.3034 122.859 59.877C122.799 59.4505 122.601 59.0558 122.294 58.7546C121.123 57.523 119.614 57.3 118.268 57.3266C116.641 57.4715 115.091 58.0937 113.814 59.1155C113.086 59.7843 112.426 60.524 111.844 61.3239C111.78 61.43 111.669 61.5946 111.674 61.2124C111.661 60.5256 111.565 59.843 111.388 59.1792C110.94 57.8275 110.218 56.5826 109.27 55.5217C108.291 54.482 107.096 53.6717 105.769 53.1488C104.71 52.825 103.709 52.7613 103.555 53.0851C103.401 53.4089 103.836 53.5788 103.989 53.4195C104.281 53.0479 105.006 53.1329 105.621 53.3877Z" fill="#FF0000"/>
<path d="M85.8915 12.2149C85.5631 12.2839 85.4413 11.5248 85.007 11.5885C84.8909 11.602 84.7807 11.6471 84.6883 11.7189C84.5959 11.7906 84.5248 11.8864 84.4828 11.9957C84.4408 12.1051 84.4295 12.2239 84.45 12.3392C84.4705 12.4546 84.5221 12.5621 84.5992 12.6502C84.8958 13.0005 86.0186 12.9156 86.5536 12.0291C87.1891 10.9674 87.0514 9.25272 86.2411 7.53277C85.3119 5.74223 83.9239 4.23196 82.2195 3.15719C80.5152 2.08241 78.556 1.4819 76.5434 1.41738C70.6061 1.23158 66.7874 4.02384 65.2356 7.62832C63.546 11.5566 65.8288 16.398 69.1602 17.4809C72.338 18.5054 72.6558 17.0031 72.3751 16.467C72.1527 16.037 71.5383 15.4902 71.1463 15.9945C71.0747 16.0605 71.0239 16.1461 71.0002 16.2406C70.9765 16.3352 70.981 16.4347 71.0132 16.5268C71.0453 16.6188 71.1036 16.6994 71.1809 16.7586C71.2582 16.8178 71.3512 16.853 71.4482 16.8598C71.8402 16.8598 71.8931 16.9341 71.8826 17.173C71.872 17.4119 70.6856 17.603 69.4621 17.1093C68.4072 16.7165 67.4752 16.0501 66.7615 15.178C66.0478 14.3059 65.5778 13.2596 65.3998 12.1459C64.7748 9.08816 67.2959 4.88382 71.2946 3.1214C73.5608 2.17367 76.0364 1.84223 78.4713 2.16056C78.9311 2.25123 79.3841 2.37362 79.8271 2.52685C79.8271 2.52685 79.9013 2.72857 78.5401 2.56931C77.6768 2.46845 75.0127 2.53746 73.0795 4.09816C71.1463 5.65886 69.817 8.45114 69.9017 10.6701C69.8993 11.5433 70.2398 12.3823 70.8498 13.0058C71.0139 13.0855 70.9822 12.8625 70.7173 12.475C70.5396 12.1158 70.4349 11.7248 70.4094 11.3247C70.384 10.9246 70.4382 10.5234 70.569 10.1446C70.9345 9.31038 71.4767 8.56589 72.158 7.96276C72.3662 7.79592 72.5223 7.57269 72.6078 7.31957C72.6932 7.06645 72.7044 6.79406 72.6399 6.53477C72.5817 5.94552 72.2851 5.38814 73.1378 4.67149C74.4852 3.61059 76.1387 3.01471 77.8516 2.97276C79.3481 2.99729 80.8186 3.36984 82.147 4.06102C83.0579 4.53347 85.8121 6.46045 86.2993 8.96076C86.7866 11.4611 85.8915 12.2149 85.8915 12.2149Z" fill="#FF0000"/>
<path d="M91.3206 3.39745C91.3206 3.39745 89.97 6.08885 89.9276 6.85859C89.8993 7.12307 89.9323 7.39054 90.0242 7.6401C90.1161 7.88966 90.2643 8.11455 90.4573 8.29719C90.821 8.63241 91.2669 8.86503 91.7496 8.97137C92.3057 9.1147 94.3448 9.3642 95.3352 9.45445C96.4792 9.56062 98.3012 9.70925 99.2016 9.91628C101.286 10.3337 103.257 11.1955 104.98 12.4431C107.443 14.2693 109.747 17.9852 109.789 21.7808C109.842 26.2134 106.442 29.4304 104.111 30.5982C102.183 31.5644 99.6677 31.9625 99.0374 31.352C98.5077 30.8212 98.3806 29.7595 99.3499 29.7913C100.06 29.9187 99.9802 30.3647 99.8795 30.5982C99.7789 30.8318 99.3499 31.1822 99.62 31.2565C100.483 31.4582 102.427 31.0495 103.719 30.301C105.405 29.2943 106.792 27.8536 107.734 26.1285C108.878 24.1325 109.143 20.0237 107.941 17.4331C106.94 15.2779 104.763 12.1246 99.3764 10.4843C97.4326 9.87913 95.2875 10.341 94.4772 10.5215C93.0944 10.8426 91.7541 11.3255 90.4837 11.9601C89.1914 12.5865 88.7677 13.0961 88.6882 13.8499C88.6088 14.6037 88.2751 15.5858 87.8038 15.9149C86.899 16.5814 86.0664 17.3411 85.3197 18.1816C84.7886 19.1184 84.4517 20.153 84.3293 21.2234C84.2711 21.8286 83.9215 21.5897 83.948 21.2234C83.934 19.3431 84.4419 17.4959 85.4151 15.8884C86.3049 14.3742 87.5481 13.0991 89.0378 12.1724C90.2093 11.4619 91.4704 10.912 92.7876 10.5374C93.2167 10.4206 94.7526 10.118 94.9062 10.0596C95.0598 10.0012 94.599 9.92159 94.3395 9.83666C94.08 9.75172 89.9276 9.49161 89.2073 8.89175C88.487 8.29188 88.8154 7.25672 89.3821 6.34366C89.8217 5.62701 90.2295 5.06431 90.5473 4.43259C90.7591 3.9973 90.9763 3.66286 91.0769 3.42398C91.1776 3.1851 91.2888 3.17449 91.3206 3.39745Z" fill="#FF0000"/>
<path d="M82.1152 25.3959C82.8196 25.0084 84.4615 25.2367 84.9753 25.3641C85.7717 25.5352 86.6008 25.4669 87.3586 25.1676C88.2182 24.8525 89.1493 24.7881 90.0439 24.9818C90.9235 25.2567 91.7196 25.7497 92.3584 26.4151C93.5167 27.5101 95.0095 28.1815 96.5955 28.3209C98.1845 28.5173 100.711 28.0236 103.078 26.2877C104.668 25.1016 105.783 23.3843 106.219 21.4464C106.462 20.2804 106.311 19.0664 105.79 17.9958C105.197 16.9341 104.731 16.5095 104.588 16.605C104.445 16.7006 104.588 16.8917 104.884 17.258C105.604 18.1575 105.966 19.292 105.901 20.4431C105.732 22.0038 104.387 24.7695 101.606 26.2824C98.8253 27.7954 96.0659 27.9015 95.0649 27.5246C94.1807 27.155 93.4149 26.549 92.851 25.7728C92.7449 25.6324 92.6741 25.4686 92.6445 25.295C93.0764 25.1524 93.5373 25.1213 93.9844 25.2048C95.7481 25.5552 96.8763 25.3163 97.8667 24.4722C98.8571 23.6282 99.249 21.7065 99.4556 21.0854C99.7435 20.1913 100.159 19.3438 100.69 18.5692C101.157 18.0374 101.691 17.5681 102.279 17.173C102.48 17.0615 102.173 16.8704 101.993 17.0191C101.301 17.5086 100.687 18.099 100.171 18.7709C99.641 19.6096 98.5499 21.956 98.2057 22.5877C97.8084 23.2884 96.818 23.7609 96.0871 23.9679C95.3562 24.1749 94.4187 23.9255 93.6349 24.2705C93.2499 24.4755 92.8937 24.7308 92.5756 25.0296C92.009 23.7002 91.9302 22.2127 92.3531 20.8306C93.0522 18.4524 95.7958 15.2991 97.819 16.175C99.3285 16.8333 98.0044 18.6753 97.5277 18.7921C97.4228 18.8069 97.3159 18.7931 97.2182 18.752C97.1206 18.7109 97.0358 18.6442 96.9729 18.5588C96.91 18.4734 96.8712 18.3726 96.8607 18.267C96.8502 18.1613 96.8684 18.0548 96.9133 17.9587C97.1199 17.7092 97.2417 18.1073 97.3953 18.2029C97.5489 18.2984 97.7713 18.1286 97.7819 17.826C97.7819 17.4172 97.0563 16.9925 96.4578 17.741C95.8593 18.4895 96.7809 19.3336 97.5966 19.0469C97.9781 18.8401 98.2908 18.5257 98.496 18.1427C98.7012 17.7596 98.7899 17.3247 98.7512 16.8917C98.5904 16.4925 98.3032 16.1573 97.9339 15.9377C97.5645 15.7181 97.1334 15.6261 96.7068 15.676C95.0066 15.8247 93.8997 16.8704 93.084 17.9428C92.1745 19.3061 91.6913 20.9105 91.6964 22.5505C91.7635 23.536 91.9285 24.5123 92.1889 25.4649C92.226 25.5817 92.2896 25.7728 91.9877 25.5286C91.4493 25.1007 90.8584 24.7439 90.2293 24.4669C88.8984 23.9699 87.4791 23.7548 86.061 23.8352C84.6427 23.9533 83.268 24.3848 82.0358 25.0986C81.093 25.741 80.4469 26.4735 80.5952 26.792C80.7435 27.1106 81.1566 26.8823 81.1248 26.6593C81.0136 26.2293 81.5326 25.7197 82.1152 25.3959Z" fill="#FF0000"/>
<path d="M37.705 15.1611C37.5514 15.4637 36.884 15.0762 36.6457 15.4584C36.5859 15.5576 36.5539 15.6711 36.5528 15.7869C36.5517 15.9028 36.5817 16.0169 36.6396 16.1172C36.6975 16.2175 36.7812 16.3004 36.8819 16.3573C36.9827 16.4141 37.0968 16.4429 37.2124 16.4404C37.6679 16.4404 38.3034 15.4902 37.9433 14.5188C37.5249 13.3615 36.0896 12.3954 34.2358 11.9654C32.2608 11.5721 30.2168 11.714 28.3147 12.3765C26.4126 13.0391 24.7213 14.1982 23.4153 15.7344C19.5648 20.2732 19.3688 25.0031 21.2067 28.4748C23.214 32.2545 28.4151 33.4807 31.3387 31.5431C34.1087 29.7064 33.1501 28.512 32.5516 28.4005C32.0749 28.3103 31.2698 28.443 31.4181 29.0641C31.5664 29.6852 32.0802 29.6374 32.2761 29.372C32.4721 29.1065 32.6151 29.0694 32.8058 29.2233C32.9965 29.3773 32.3927 30.4337 31.2434 31.076C30.2807 31.6609 29.1796 31.9777 28.0539 31.9936C26.9283 32.0094 25.8188 31.7238 24.84 31.1662C22.07 29.7542 20.3593 25.1517 21.5033 20.9261C22.1671 18.5626 23.4467 16.4189 25.2108 14.7152C25.5679 14.4086 25.9467 14.1283 26.3442 13.8764C26.3442 13.8764 26.5455 13.9401 25.5762 14.9063C24.9618 15.5221 23.3517 17.6508 23.3517 20.1458C23.3517 22.6408 24.7129 25.4118 26.4872 26.7442C27.1679 27.2863 28.0316 27.5432 28.8971 27.4609C29.0665 27.376 28.8971 27.2645 28.4151 27.2326C27.627 27.0594 26.9396 26.5803 26.5031 25.9002C26.0822 25.0943 25.8384 24.2073 25.7881 23.299C25.7856 23.0326 25.7083 22.7722 25.565 22.5478C25.4217 22.3234 25.2181 22.1441 24.9777 22.0303C24.4746 21.7118 23.8602 21.595 23.8337 20.4802C23.8383 18.7678 24.3957 17.1029 25.4226 15.7344C26.3762 14.5759 27.5832 13.6532 28.95 13.0377C29.8875 12.6236 33.113 11.6681 35.3587 12.8466C37.6043 14.0251 37.705 15.1611 37.705 15.1611Z" fill="#FF0000"/>
<path d="M34.2146 5.40408C34.2146 5.40408 35.4752 8.14326 36.0472 8.65288C36.2366 8.84012 36.4666 8.98111 36.7192 9.06488C36.9717 9.14866 37.2402 9.17297 37.5037 9.13595C37.9923 9.05986 38.4525 8.85669 38.8384 8.54671C39.2939 8.19104 40.761 6.76304 41.4548 6.03578C42.3309 5.07429 43.2555 4.15827 44.2248 3.29129C45.852 1.91928 47.7538 0.912824 49.8019 0.339761C52.7573 -0.44059 57.0951 0.0743272 60.0769 2.40476C63.5673 5.13333 63.9486 9.79952 63.4137 12.3529C62.9635 14.4763 61.6976 16.6847 60.829 16.7961C60.1034 16.8811 59.1765 16.3184 59.8068 15.5858C60.3365 15.0974 60.6489 15.4478 60.7655 15.676C60.882 15.9043 60.882 16.467 61.115 16.2865C61.8141 15.7557 62.7039 13.9614 62.9317 12.4856C63.1964 10.5346 62.9368 8.54809 62.1796 6.73121C61.3375 4.60781 58.3026 1.82083 55.5432 1.14665C53.2234 0.583947 49.4047 0.345059 44.7703 3.51424C43.0861 4.66088 42.1221 6.62504 41.7408 7.37885C41.127 8.66262 40.6683 10.0152 40.3743 11.408C40.0512 12.8041 40.189 13.4518 40.7239 13.9879C41.2588 14.5241 41.8202 15.3947 41.7832 15.968C41.7446 17.091 41.8192 18.215 42.0056 19.323C42.4058 20.3248 43.0018 21.2363 43.7587 22.0038C44.2036 22.4285 43.7905 22.5346 43.4992 22.2904C42.0265 21.1248 40.9061 19.5717 40.2631 17.8047C39.6295 16.1656 39.4059 14.3959 39.6116 12.6502C39.7899 11.291 40.1461 9.96128 40.6709 8.69535C40.851 8.28659 41.5766 6.89046 41.6137 6.74182C41.6508 6.59318 41.3171 6.89577 41.084 7.04441C40.851 7.19305 38.0651 10.2879 37.1488 10.479C36.2325 10.6701 35.6341 9.76236 35.2686 8.75374C34.9826 7.95216 34.7972 7.29391 34.5006 6.63034C34.2994 6.19505 34.1723 5.80753 34.0557 5.56864C33.9392 5.32976 34.0186 5.28729 34.2146 5.40408Z" fill="#FF0000"/>
<path d="M45.6284 26.3461C45.7661 25.5392 46.9631 24.4032 47.3815 24.0794C48.012 23.563 48.4779 22.8728 48.7215 22.094C49.0093 21.2227 49.5383 20.4513 50.2468 19.8698C51.0142 19.3594 51.8941 19.0442 52.8103 18.9514C54.3832 18.7287 55.835 17.9806 56.9309 16.828C58.0749 15.7079 59.2666 13.4146 59.3937 10.4578C59.4567 8.47245 58.8106 6.52977 57.5718 4.97939C56.8115 4.06618 55.7733 3.42837 54.6164 3.16389C53.43 2.9834 52.8209 3.0524 52.7785 3.2382C52.7361 3.424 53.001 3.4187 53.4723 3.41339C54.6256 3.42642 55.7331 3.86705 56.5813 4.65026C57.6883 5.75974 59.0071 8.53609 58.4563 11.6575C57.9054 14.7789 56.2583 17.0085 55.342 17.5606C54.4984 18.0137 53.5496 18.2335 52.5931 18.1976C52.4071 18.1972 52.2244 18.1478 52.0635 18.0542C52.226 17.6276 52.4917 17.2482 52.8368 16.9501C54.2032 15.7928 54.7223 14.7524 54.6852 13.4571C54.6482 12.1618 53.3876 10.6489 53.0221 10.1127C52.505 9.32696 52.1036 8.47055 51.8305 7.56994C51.7061 6.86929 51.6776 6.15491 51.7457 5.44654C51.7828 5.22358 51.4385 5.34567 51.4438 5.57394C51.3932 6.41939 51.47 7.26767 51.6716 8.09018C51.9788 9.05102 53.1546 11.3708 53.4194 12.0185C53.716 12.767 53.4618 13.834 53.1599 14.5612C52.858 15.2885 52.1006 15.8406 51.8569 16.6846C51.792 17.0936 51.7778 17.5091 51.8146 17.9215C50.4207 17.5443 49.2072 16.6801 48.3931 15.4849C46.979 13.4571 46.2322 9.33768 48.176 8.30252C49.6325 7.51686 50.2363 9.71458 50.035 10.1605C49.982 10.252 49.9051 10.3274 49.8127 10.3786C49.7202 10.4297 49.6156 10.4547 49.5101 10.4509C49.4046 10.4471 49.3021 10.4146 49.2135 10.3569C49.125 10.2992 49.0538 10.2185 49.0075 10.1233C48.9333 9.81013 49.3253 9.95346 49.4947 9.89507C49.6642 9.83668 49.6695 9.55533 49.4365 9.36422C49.2035 9.17311 48.3401 9.412 48.5467 10.3516C48.7532 11.2912 50.0032 11.1001 50.2786 10.2773C50.3552 9.84895 50.304 9.4075 50.1316 9.00812C49.9592 8.60875 49.6732 8.26915 49.3094 8.03178C48.8991 7.90466 48.4582 7.91811 48.0564 8.06998C47.6545 8.22186 47.3146 8.50352 47.0902 8.87053C46.1527 10.2932 46.2692 11.8167 46.5976 13.1173C47.0942 14.6811 48.0437 16.0615 49.3253 17.0828C50.1351 17.6487 51.0013 18.129 51.9099 18.5161C52.0211 18.5532 52.2065 18.6276 51.8305 18.7072C51.1678 18.8735 50.5275 19.1194 49.9238 19.4398C48.7058 20.1703 47.6525 21.1464 46.8307 22.3064C46.038 23.4946 45.5154 24.8429 45.3 26.2559C45.2153 27.3866 45.3741 28.3793 45.7184 28.443C45.7532 28.4583 45.7906 28.4667 45.8286 28.4675C45.8666 28.4683 45.9044 28.4616 45.9398 28.4478C45.9752 28.434 46.0076 28.4134 46.035 28.387C46.0625 28.3607 46.0845 28.3292 46.0998 28.2943C46.1151 28.2595 46.1234 28.222 46.1242 28.1839C46.125 28.1458 46.1184 28.108 46.1046 28.0725C46.0908 28.037 46.0702 28.0045 46.0439 27.977C46.0177 27.9495 45.9862 27.9275 45.9515 27.9121C45.586 27.7263 45.5119 27.0044 45.6284 26.3461Z" fill="#FF0000"/>
<path d="M9.93065 54.7413C10.0737 55.0439 9.35863 55.3305 9.51223 55.7393C9.55323 55.8476 9.62225 55.943 9.7122 56.0158C9.80215 56.0885 9.9098 56.136 10.0241 56.1533C10.1384 56.1706 10.2552 56.1571 10.3626 56.1142C10.4699 56.0713 10.564 56.0005 10.6351 55.9092C10.9105 55.5429 10.5768 54.4599 9.57578 54.1361C8.40528 53.7486 6.7581 54.2688 5.26981 55.4367C3.73921 56.7453 2.58333 58.4384 1.92067 60.3423C1.25801 62.2462 1.11241 64.2925 1.49878 66.2714C2.63221 72.1107 6.19669 75.2268 10.0472 75.9435C14.2101 76.7344 18.4473 73.4219 18.7491 69.9448C19.0404 66.6323 17.5098 66.6376 17.0543 67.0358C16.6888 67.349 16.281 68.0656 16.8583 68.3417C17.4356 68.6177 17.7216 68.1718 17.6369 67.8586C17.5522 67.5454 17.6104 67.3968 17.8435 67.3543C18.0765 67.3118 18.532 68.416 18.3201 69.7325C18.1724 70.8515 17.7307 71.9111 17.0402 72.8029C16.3497 73.6946 15.4351 74.3864 14.3902 74.8074C11.5566 76.0921 6.9064 74.5632 4.32705 71.0384C2.90644 69.0324 2.03701 66.6873 1.80596 64.2382C1.79468 63.7686 1.81237 63.2988 1.85893 62.8314C1.85893 62.8314 2.03901 62.7147 2.19261 64.0789C2.28264 64.9442 2.93941 67.5401 4.88318 69.0796C6.82696 70.619 9.8459 71.3091 11.9909 70.7411C12.8368 70.5485 13.5753 70.0347 14.0512 69.3078C14.0936 69.122 13.8818 69.1963 13.5693 69.5414C13.2598 69.7943 12.9034 69.9832 12.5207 70.0971C12.1379 70.211 11.7365 70.2476 11.3395 70.205C10.4476 70.0362 9.60335 69.6739 8.86607 69.1433C8.65639 68.978 8.40422 68.8758 8.13888 68.8486C7.87354 68.8213 7.60593 68.8701 7.36718 68.9893C6.80576 69.1804 6.3079 69.5945 5.44989 68.915C4.11676 67.8288 3.17086 66.3387 2.75402 64.6682C2.44577 63.2009 2.48021 61.682 2.85466 60.2303C3.11418 59.2323 4.38531 56.1162 6.70513 55.0863C9.02495 54.0565 9.93065 54.7413 9.93065 54.7413Z" fill="#FF0000"/>
<path d="M0.148188 51.3651C0.148188 51.3651 3.07708 52.087 3.82917 51.9596C4.09313 51.927 4.34606 51.8339 4.56834 51.6875C4.79061 51.5412 4.97626 51.3455 5.11091 51.1156C5.35908 50.6872 5.48547 50.1988 5.47636 49.7035C5.47636 49.1249 5.29098 47.0811 5.15857 46.0884C4.95534 44.8047 4.81922 43.5112 4.75076 42.2132C4.68997 40.082 5.09111 37.963 5.92654 36.0023C7.1606 33.1941 10.2643 30.1204 13.9506 29.2392C18.2566 28.2094 22.1282 30.8318 23.786 32.8331C25.1524 34.5053 26.0952 36.8729 25.6344 37.6107C25.2531 38.2318 24.2256 38.6087 24.0455 37.6479C24.0137 36.9259 24.4692 36.91 24.7181 36.9631C24.9671 37.0162 25.4067 37.3612 25.412 37.0693C25.412 36.1774 24.591 34.3672 23.5847 33.2737C22.2288 31.8497 20.517 30.8158 18.6273 30.2797C16.4399 29.6002 12.3776 30.2478 10.1266 31.989C8.25167 33.4542 5.67761 36.2889 5.2539 41.9C5.10031 43.9385 6.02188 45.9345 6.37674 46.6777C6.99521 47.9591 7.76134 49.1635 8.65948 50.2662C9.55987 51.3863 10.1425 51.6889 10.8946 51.604C11.6466 51.519 12.6742 51.604 13.1032 52.0074C13.9511 52.7425 14.8722 53.3882 15.852 53.9344C16.8811 54.2441 17.9614 54.3451 19.0298 54.2317C19.6336 54.1467 19.4747 54.5449 19.0987 54.6086C17.271 55.0374 15.3604 54.9492 13.5798 54.3538C11.9081 53.8189 10.3894 52.8884 9.15206 51.6411C8.20221 50.6514 7.38822 49.5392 6.7316 48.3339C6.52504 47.9411 5.88947 46.5131 5.79943 46.3857C5.70939 46.2583 5.73588 46.7042 5.7094 46.9856C5.68292 47.2669 6.34495 51.3704 5.92654 52.2091C5.50812 53.0479 4.41707 52.947 3.41075 52.602C2.611 52.3312 1.97543 52.0711 1.29219 51.8853C0.826112 51.7738 0.444784 51.6358 0.195854 51.5827C-0.0530767 51.5296 -0.0636676 51.4659 0.148188 51.3651Z" fill="#FF0000"/>
<path d="M23.5953 55.511C23.0657 54.9059 22.9174 53.2602 22.928 52.7241C22.9162 51.908 22.6678 51.113 22.2129 50.4361C21.7108 49.667 21.4388 48.7699 21.4291 47.8509C21.5066 46.9317 21.8125 46.0466 22.3189 45.2762C23.1239 43.9034 23.4482 42.3003 23.2404 40.7215C23.0816 39.129 22.0382 36.7667 19.8243 34.8397C18.3156 33.551 16.399 32.8416 14.4167 32.8384C13.2283 32.8646 12.0817 33.2825 11.1541 34.0275C10.2749 34.8397 9.9412 35.3599 10.0683 35.5086C10.1954 35.6572 10.3437 35.4449 10.6403 35.0733C11.3522 34.174 12.371 33.5707 13.5004 33.3799C15.0575 33.2047 18.05 33.9107 20.1368 36.2836C22.2235 38.6565 22.9386 41.3426 22.785 42.4043C22.6185 43.3497 22.1993 44.2322 21.5721 44.9577C21.4564 45.0904 21.3113 45.1941 21.1484 45.2603C20.9171 44.8684 20.7861 44.4253 20.767 43.9704C20.7194 42.1708 20.2374 41.1197 19.1781 40.3393C18.1188 39.559 16.1751 39.6014 15.5342 39.5484C14.5963 39.4689 13.6753 39.2506 12.8013 38.9007C12.1846 38.5579 11.6135 38.1388 11.1011 37.6532C10.9422 37.478 10.831 37.8231 11.0111 37.9717C11.6462 38.5345 12.3599 39.0013 13.1296 39.3573C14.0618 39.7129 16.6147 40.2385 17.282 40.419C18.05 40.6525 18.7279 41.5178 19.104 42.2079C19.48 42.898 19.427 43.8483 19.9302 44.5384C20.2191 44.8655 20.5483 45.1545 20.91 45.3983C19.743 46.2641 18.3069 46.6855 16.8583 46.5874C14.3955 46.4282 10.7198 44.464 11.1276 42.2769C11.4295 40.6472 13.5216 41.5444 13.7334 41.9797C13.771 42.0787 13.7813 42.1861 13.7631 42.2905C13.7449 42.3949 13.6989 42.4924 13.6301 42.5729C13.5612 42.6533 13.472 42.7136 13.3718 42.7475C13.2716 42.7814 13.1642 42.7875 13.0608 42.7653C12.7748 42.6273 13.1296 42.4096 13.1932 42.2345C13.2567 42.0593 13.0343 41.8841 12.7377 41.9425C12.3405 42.0221 12.0862 42.829 12.9496 43.2484C13.8129 43.6678 14.4431 42.5795 13.9718 41.8523C13.6853 41.5249 13.3092 41.2891 12.8903 41.174C12.4713 41.0588 12.0278 41.0695 11.6149 41.2046C11.2623 41.4501 11.0003 41.8051 10.8691 42.2148C10.738 42.6245 10.745 43.0661 10.8893 43.4713C11.4189 45.0958 12.6688 45.9451 13.8923 46.5078C15.4209 47.0966 17.0903 47.213 18.6856 46.8422C19.6312 46.558 20.5466 46.1811 21.4185 45.7168C21.5138 45.6478 21.6833 45.5523 21.5138 45.8973C21.2266 46.5181 21.0184 47.1727 20.8941 47.8456C20.7041 49.2567 20.8087 50.692 21.2013 52.0605C21.6279 53.4222 22.3516 54.6716 23.3199 55.7181C24.1461 56.4984 25.0094 56.9709 25.2796 56.7798C25.3303 56.7399 25.3657 56.6837 25.38 56.6207C25.3943 56.5577 25.3864 56.4916 25.3578 56.4337C25.3293 56.3758 25.2817 56.3295 25.223 56.3026C25.1644 56.2757 25.0983 56.2699 25.0359 56.2861C24.644 56.4029 24.0349 56.01 23.5953 55.511Z" fill="#FF0000"/>
<path d="M23.4684 101.191C23.7915 101.265 23.5637 102.008 23.998 102.141C24.1063 102.173 24.2211 102.176 24.3309 102.15C24.4407 102.123 24.5416 102.068 24.6233 101.99C24.705 101.912 24.7647 101.814 24.7963 101.705C24.8278 101.596 24.8302 101.481 24.8031 101.371C24.6972 100.925 23.6379 100.511 22.7799 101.074C21.7206 101.748 21.1221 103.367 21.1062 105.262C21.1625 107.28 21.7547 109.245 22.8216 110.957C23.8886 112.668 25.3916 114.063 27.1759 114.998C32.4405 117.764 37.0854 116.909 40.0567 114.345C43.2875 111.542 43.3352 106.186 40.8035 103.76C38.3989 101.456 37.4456 102.666 37.4721 103.266C37.4721 103.755 37.7951 104.514 38.3671 104.238C38.9392 103.962 38.7803 103.457 38.4784 103.325C38.1765 103.192 38.097 103.059 38.2136 102.852C38.3301 102.645 39.4847 102.99 40.3692 103.967C41.1482 104.78 41.6979 105.786 41.9621 106.882C42.2264 107.978 42.1958 109.124 41.8734 110.205C41.1054 113.23 37.006 115.922 32.647 115.736C30.1907 115.609 27.8132 114.824 25.7617 113.464C25.3867 113.184 25.0326 112.877 24.7025 112.546C24.7025 112.546 24.7289 112.339 25.8836 113.076C26.6198 113.544 29.0614 114.642 31.4659 114.09C33.8705 113.538 36.291 111.59 37.1967 109.562C37.5759 108.778 37.633 107.877 37.3556 107.051C37.239 106.903 37.1702 107.115 37.2496 107.582C37.2526 107.983 37.1764 108.381 37.0255 108.753C36.8747 109.125 36.652 109.463 36.3704 109.748C35.6847 110.344 34.8763 110.781 34.0029 111.027C33.7441 111.085 33.507 111.216 33.3195 111.404C33.1319 111.592 33.0016 111.83 32.9436 112.089C32.7424 112.62 32.7689 113.273 31.6884 113.544C30.0152 113.909 28.2689 113.723 26.7098 113.013C25.3713 112.339 24.2073 111.363 23.3095 110.162C22.6845 109.334 21.0956 106.398 21.7153 103.919C22.335 101.44 23.4684 101.191 23.4684 101.191Z" fill="#FF0000"/>
<path d="M14.7399 106.765C14.7399 106.765 17.1286 104.923 17.494 104.248C17.6345 104.022 17.721 103.767 17.7467 103.501C17.7724 103.236 17.7367 102.969 17.6423 102.72C17.459 102.258 17.1575 101.854 16.7684 101.546C16.3288 101.18 14.6075 100.065 13.7495 99.5451C12.6215 98.8933 11.5273 98.1846 10.471 97.4217C8.77421 96.1454 7.37379 94.5154 6.3663 92.6441C4.94686 89.9314 4.49137 85.5785 6.09618 82.1439C7.9764 78.1253 12.4519 76.7186 15.0365 76.6814C17.1921 76.6814 19.6338 77.3927 19.9304 78.2209C20.1793 78.911 19.8297 79.9514 18.977 79.4896C18.3891 79.0649 18.6592 78.6986 18.8552 78.5341C19.0512 78.3695 19.5967 78.2474 19.3848 78.0563C18.7016 77.4883 16.7684 76.9946 15.2801 77.1273C13.3258 77.2942 11.4524 77.9855 9.85662 79.1286C7.96051 80.4292 5.93728 84.0071 5.89491 86.8684C5.85784 89.2413 6.46694 93.0316 10.5769 96.8643C12.0705 98.2499 14.1944 98.7754 15.01 98.9877C16.4004 99.3002 17.8223 99.4498 19.2471 99.4337C20.6878 99.4337 21.2862 99.1576 21.6835 98.51C22.0807 97.8623 22.8116 97.1351 23.3836 97.0395C24.4845 96.8325 25.5617 96.5142 26.5985 96.0893C27.485 95.4762 28.2397 94.691 28.8177 93.7801C29.1302 93.2492 29.3474 93.6262 29.1567 93.9606C28.3458 95.6596 27.0831 97.1015 25.5075 98.1278C24.0494 99.1044 22.378 99.7144 20.6348 99.9061C19.2704 100.023 17.8966 99.9681 16.546 99.7416C16.1064 99.6513 14.5969 99.2532 14.4274 99.2479C14.2579 99.2426 14.6393 99.5027 14.8405 99.6938C15.0418 99.8849 18.6592 101.923 19.0776 102.778C19.4961 103.633 18.7175 104.424 17.8171 105.002C17.1021 105.454 16.4983 105.788 15.9316 106.207C15.5502 106.51 15.206 106.738 15.0153 106.887C14.8246 107.035 14.671 106.977 14.7399 106.765Z" fill="#FF0000"/>
<path d="M32.5888 90.9719C31.7837 91.0197 30.412 90.0907 29.9988 89.7562C29.3566 89.2536 28.5813 88.9509 27.7691 88.8856C26.8561 88.7956 25.9873 88.4477 25.2639 87.8823C24.5982 87.248 24.0996 86.4583 23.8127 85.5837C23.2487 84.0961 22.2022 82.8416 20.8414 82.0217C19.4961 81.1565 17.0015 80.4929 14.115 81.0237C12.17 81.3994 10.4231 82.4593 9.18931 84.0124C8.46772 84.9575 8.07517 86.1136 8.07178 87.3037C8.16182 88.5034 8.36307 89.0927 8.55904 89.0821C8.755 89.0714 8.67556 88.8272 8.55904 88.3654C8.30421 87.2453 8.46818 86.0705 9.01984 85.0635C9.86196 83.7364 12.2718 81.8253 15.4285 81.682C18.5851 81.5387 21.1221 82.6428 21.8583 83.4179C22.4923 84.1395 22.9188 85.0203 23.0923 85.966C23.1274 86.1424 23.1183 86.3248 23.0659 86.4968C22.6132 86.4272 22.1852 86.2446 21.8212 85.966C20.3859 84.9043 19.2684 84.607 18.0078 84.9043C16.7473 85.2015 15.5662 86.7888 15.1213 87.2665C14.4727 87.9477 13.7287 88.5306 12.9127 88.9971C12.2599 89.2705 11.5745 89.4579 10.8736 89.5545C10.6405 89.5545 10.8418 89.8677 11.0589 89.8199C11.8957 89.6821 12.7065 89.4172 13.4635 89.0343C14.3268 88.5034 16.3236 86.8578 16.8956 86.4597C17.5576 86.0031 18.654 86.0137 19.4272 86.1518C20.2005 86.2898 20.9049 86.9162 21.763 86.9533C22.1965 86.9332 22.6256 86.8564 23.0394 86.7251C22.9753 88.1713 22.3988 89.5472 21.4134 90.6056C19.7556 92.4423 15.9157 94.0774 14.4751 92.4105C13.4158 91.1577 15.3967 90.0801 15.8734 90.1862C15.9744 90.2177 16.065 90.2762 16.1354 90.3554C16.2058 90.4346 16.2534 90.5315 16.273 90.6357C16.2926 90.7399 16.2835 90.8476 16.2467 90.947C16.2099 91.0464 16.1467 91.134 16.064 91.2002C15.778 91.3382 15.831 90.9241 15.7357 90.7702C15.6403 90.6162 15.3649 90.6746 15.206 90.94C15.0153 91.301 15.492 92.0017 16.3553 91.593C17.2186 91.1842 16.7684 90.0004 15.9104 89.9208C15.4751 89.9394 15.055 90.0863 14.7026 90.3432C14.3503 90.6 14.0814 90.9554 13.9296 91.3647C13.8916 91.8041 14.0034 92.2434 14.2468 92.6108C14.4902 92.9782 14.8508 93.2519 15.2696 93.3873C16.8585 93.9871 18.3203 93.5306 19.5067 92.9254C20.918 92.0949 22.0488 90.8598 22.7534 89.3793C23.1239 88.4627 23.4025 87.5113 23.5849 86.5393C23.5849 86.4172 23.622 86.2155 23.7862 86.5711C24.0892 87.1861 24.4682 87.7604 24.9143 88.2805C25.9009 89.3046 27.0848 90.1173 28.394 90.6693C29.7246 91.1812 31.1517 91.3915 32.5729 91.2851C33.6957 91.1205 34.6067 90.7542 34.6014 90.388C34.5961 90.0217 34.1353 90.0641 34.0718 90.2765C33.9394 90.7012 33.2773 90.9294 32.5888 90.9719Z" fill="#FF0000"/>
<path d="M68.117 119.579C68.3871 119.367 68.8214 120.004 69.1763 119.76C69.2726 119.695 69.3499 119.606 69.4004 119.502C69.4509 119.397 69.4727 119.281 69.4635 119.165C69.4544 119.05 69.4146 118.938 69.3483 118.843C69.2819 118.748 69.1915 118.672 69.0862 118.624C68.6784 118.438 67.6933 119.006 67.5979 120.041C67.4761 121.262 68.35 122.759 69.8171 123.954C71.4264 125.169 73.3297 125.932 75.3311 126.166C77.3326 126.399 79.3598 126.093 81.2044 125.281C86.6438 122.876 88.8895 118.709 88.7306 114.78C88.5611 110.502 84.4193 107.131 80.9449 107.598C77.6558 108.039 78.0001 109.541 78.4873 109.891C78.874 110.183 79.6579 110.422 79.7956 109.796C79.9333 109.169 79.446 108.994 79.1547 109.143C78.8634 109.291 78.7151 109.27 78.625 109.047C78.535 108.824 79.5201 108.14 80.8336 108.065C81.9585 107.955 83.0924 108.148 84.1171 108.626C85.1419 109.104 86.0199 109.849 86.6597 110.783C88.5452 113.268 88.0844 118.151 85.2244 121.453C83.5872 123.289 81.4951 124.659 79.16 125.424C78.7025 125.544 78.237 125.631 77.767 125.684C77.767 125.684 77.6081 125.535 78.8952 125.09C79.7267 124.803 82.073 123.593 83.1747 121.374C84.2763 119.155 84.2339 116.065 83.2223 114.064C82.8501 113.275 82.1818 112.667 81.3633 112.37C81.1779 112.37 81.2997 112.556 81.7075 112.779C82.3397 113.28 82.749 114.011 82.8463 114.812C82.8734 115.722 82.7073 116.626 82.359 117.467C82.2431 117.708 82.1985 117.978 82.2304 118.244C82.2623 118.51 82.3694 118.762 82.5391 118.969C82.8463 119.5 83.3547 119.85 82.8886 120.859C82.1216 122.389 80.8828 123.631 79.3559 124.399C77.9952 125.024 76.5089 125.326 75.0129 125.281C73.9854 125.249 70.6752 124.697 69.1604 122.626C67.6456 120.556 68.117 119.579 68.117 119.579Z" fill="#FF0000"/>
<path d="M67.0259 129.883C67.0259 129.883 67.0841 126.863 66.7822 126.167C66.6938 125.917 66.5488 125.691 66.3586 125.507C66.1683 125.323 65.9381 125.185 65.6859 125.106C65.2113 124.961 64.7071 124.944 64.2241 125.058C63.6627 125.169 61.7189 125.822 60.7814 126.173C59.5679 126.655 58.3305 127.075 57.0739 127.431C55.0133 127.957 52.8638 128.033 50.7712 127.654C47.7735 127.07 44.0925 124.713 42.4188 121.283C40.4592 117.307 42.1381 112.938 43.7376 110.873C45.0617 109.164 47.1644 107.72 47.9747 108.001C48.6633 108.235 49.2618 109.159 48.3667 109.541C47.6728 109.732 47.551 109.297 47.5457 109.037C47.5404 108.777 47.7894 108.272 47.4981 108.336C46.6295 108.522 45.0564 109.737 44.209 110.99C43.1219 112.629 42.4928 114.53 42.387 116.495C42.2811 118.783 43.78 122.595 45.9886 124.405C47.8264 125.918 51.1526 127.802 56.7138 126.974C58.7264 126.672 60.4583 125.334 61.1204 124.819C62.225 123.928 63.2238 122.913 64.097 121.793C64.9974 120.668 65.1562 120.025 64.902 119.309C64.6478 118.592 64.5313 117.562 64.812 117.068C65.3381 116.074 65.7605 115.028 66.0725 113.947C66.1489 112.869 66.0102 111.786 65.6647 110.762C65.4475 110.189 65.866 110.231 66.0143 110.613C66.836 112.305 67.1734 114.192 66.9888 116.065C66.8396 117.818 66.269 119.508 65.3257 120.991C64.5698 122.138 63.667 123.18 62.6405 124.092C62.2962 124.378 61.0515 125.318 60.9403 125.435C60.8291 125.551 61.274 125.435 61.5441 125.392C61.8142 125.35 65.67 123.8 66.581 124.017C67.492 124.235 67.6403 125.328 67.529 126.395C67.4337 127.234 67.3119 127.914 67.3013 128.62C67.3013 129.108 67.243 129.512 67.243 129.761C67.243 130.011 67.1424 130.074 67.0259 129.883Z" fill="#FF0000"/>
<path d="M65.8447 106.043C65.3733 106.706 63.8003 107.2 63.2812 107.317C62.4892 107.505 61.7705 107.925 61.2157 108.522C60.5744 109.176 59.7636 109.637 58.8746 109.854C57.9618 109.98 57.0321 109.878 56.1682 109.557C54.6563 109.076 53.0275 109.113 51.5391 109.663C50.0191 110.194 47.9535 111.718 46.5658 114.308C45.6453 116.066 45.3823 118.096 45.8243 120.031C46.1057 121.187 46.7636 122.216 47.694 122.956C48.6844 123.64 49.2829 123.853 49.3835 123.688C49.4841 123.524 49.2511 123.439 48.8539 123.232C47.8194 122.733 47.0048 121.869 46.5658 120.806C46.0362 119.325 46.0733 116.246 47.9217 113.682C49.7701 111.118 52.2277 109.822 53.2923 109.732C54.249 109.684 55.2008 109.897 56.0464 110.348C56.201 110.433 56.3335 110.553 56.433 110.698C56.1054 111.012 55.7049 111.238 55.2678 111.357C53.5253 111.808 52.6196 112.503 52.09 113.698C51.5603 114.892 52.0317 116.787 52.127 117.414C52.2541 118.346 52.2434 119.292 52.0953 120.222C51.9007 120.904 51.6195 121.559 51.2584 122.17C51.126 122.356 51.4915 122.393 51.5868 122.17C51.983 121.44 52.2719 120.657 52.4448 119.845C52.5825 118.852 52.5296 116.246 52.5772 115.55C52.6249 114.743 53.3187 113.889 53.9172 113.374C54.5157 112.859 55.4373 112.694 55.9934 112.041C56.2504 111.693 56.4589 111.31 56.6131 110.905C57.7061 111.863 58.4218 113.181 58.631 114.621C59.0176 117.068 57.9054 121.098 55.7021 121.183C54.0496 121.252 54.4627 119.006 54.8388 118.698C54.9264 118.638 55.0286 118.603 55.1345 118.598C55.2404 118.592 55.3459 118.615 55.4396 118.664C55.5334 118.714 55.6118 118.789 55.6664 118.88C55.7211 118.971 55.7499 119.075 55.7498 119.181C55.6756 119.494 55.3896 119.181 55.2201 119.181C55.0506 119.181 54.9076 119.404 55.0348 119.712C55.1989 120.084 56.0411 120.153 56.2582 119.218C56.4754 118.284 55.2731 117.907 54.6693 118.523C54.4151 118.875 54.2695 119.294 54.2507 119.728C54.2318 120.162 54.3406 120.592 54.5634 120.965C54.8766 121.26 55.2791 121.442 55.7071 121.481C56.1351 121.52 56.564 121.415 56.9256 121.183C58.3927 120.312 58.9435 118.895 59.2189 117.573C59.4525 115.943 59.1981 114.28 58.488 112.795C57.9994 111.936 57.4301 111.125 56.7879 110.374C56.6978 110.29 56.5601 110.141 56.9362 110.236C57.6046 110.376 58.2875 110.435 58.97 110.412C60.3853 110.283 61.759 109.864 63.0058 109.18C64.2466 108.447 65.3087 107.446 66.1148 106.25C66.6868 105.268 66.9622 104.323 66.6868 104.126C66.4114 103.93 66.1572 104.286 66.2631 104.471C66.4803 104.822 66.2366 105.512 65.8447 106.043Z" fill="#FF0000"/>
<path d="M110.319 96.0627C110.319 95.7336 111.086 95.7867 111.129 95.3461C111.14 95.2306 111.119 95.1143 111.07 95.0094C111.021 94.9045 110.944 94.8148 110.848 94.7497C110.752 94.6846 110.641 94.6465 110.525 94.6393C110.41 94.6322 110.294 94.6563 110.191 94.7091C109.789 94.9161 109.614 96.0415 110.361 96.7582C111.24 97.6181 112.951 97.8729 114.799 97.4642C116.75 96.9594 118.531 95.9436 119.961 94.5209C121.391 93.0983 122.417 91.3201 122.935 89.3687C124.455 83.6196 122.596 79.2826 119.439 76.9309C116.007 74.3934 110.785 75.5348 108.984 78.5234C107.268 81.3741 108.655 82.043 109.238 81.8837C109.709 81.7616 110.382 81.2892 109.98 80.7955C109.577 80.3018 109.132 80.5672 109.074 80.891C109.016 81.2149 108.894 81.3104 108.661 81.252C108.428 81.1936 108.523 79.978 109.275 78.9003C109.894 77.9581 110.752 77.1977 111.761 76.6968C112.77 76.196 113.893 75.9726 115.016 76.0497C118.125 76.124 121.648 79.5374 122.431 83.8373C122.849 86.274 122.606 88.7784 121.727 91.0887C121.539 91.5187 121.32 91.9339 121.07 92.3309C121.07 92.3309 120.858 92.3309 121.319 91.0621C121.61 90.2446 122.145 87.6275 121.07 85.382C119.995 83.1365 117.569 81.2202 115.392 80.7796C114.545 80.5825 113.655 80.7274 112.914 81.183C112.803 81.3263 113.025 81.3476 113.443 81.183C114.23 81.0041 115.055 81.1413 115.742 81.5652C116.466 82.1106 117.068 82.8035 117.506 83.5984C117.621 83.8404 117.802 84.0442 118.03 84.1854C118.257 84.3266 118.52 84.3992 118.787 84.3947C119.37 84.469 119.984 84.3044 120.482 85.3024C121.21 86.8548 121.418 88.6013 121.075 90.2818C120.715 91.7291 120.033 93.0757 119.079 94.2207C118.417 95.001 115.901 97.2572 113.385 97.1722C110.869 97.0873 110.319 96.0627 110.319 96.0627Z" fill="#FF0000"/>
<path d="M117.67 103.388C117.67 103.388 115.35 101.456 114.614 101.265C114.363 101.178 114.095 101.151 113.831 101.185C113.567 101.219 113.315 101.314 113.094 101.461C112.683 101.74 112.355 102.125 112.146 102.576C111.881 103.107 111.177 105.018 110.864 105.963C110.504 107.062 109.953 108.803 109.551 109.642C108.672 111.581 107.39 113.309 105.79 114.711C103.46 116.702 99.3233 118.114 95.6317 117.297C91.2993 116.352 88.953 112.307 88.3386 109.769C87.809 107.646 88.0102 105.119 88.757 104.647C89.3661 104.254 90.4572 104.365 90.1923 105.3C89.9169 105.968 89.4932 105.788 89.2919 105.629C89.0907 105.469 88.847 104.965 88.7146 105.236C88.3121 106.027 88.2803 108.017 88.7146 109.445C89.3216 111.322 90.4189 113.001 91.8925 114.308C93.5767 115.869 97.512 117.063 100.293 116.474C102.612 115.975 106.172 114.547 108.989 109.674C110.011 107.911 110.049 105.714 110.049 104.896C110.053 103.466 109.886 102.04 109.551 100.649C109.228 99.2425 108.83 98.717 108.121 98.4728C107.411 98.2286 106.532 97.6712 106.309 97.1403C105.865 96.1099 105.317 95.128 104.673 94.21C103.877 93.4786 102.944 92.9122 101.929 92.5432C101.357 92.3574 101.67 92.0707 102.04 92.1769C103.873 92.5935 105.555 93.5124 106.897 94.8311C108.173 96.0393 109.137 97.5406 109.704 99.2053C110.125 100.509 110.374 101.861 110.446 103.229C110.446 103.68 110.409 105.252 110.446 105.4C110.483 105.549 110.652 105.135 110.785 104.87C110.917 104.604 112.119 100.623 112.866 100.092C113.613 99.561 114.54 100.092 115.303 100.83C115.906 101.435 116.362 101.945 116.891 102.422C117.267 102.73 117.548 103.022 117.749 103.181C117.951 103.341 117.892 103.388 117.67 103.388Z" fill="#FF0000"/>
<path d="M98.3541 89.4058C98.5712 90.1862 97.978 91.7363 97.7397 92.2087C97.3953 92.9507 97.2756 93.7775 97.3954 94.5869C97.5024 95.4934 97.3576 96.4119 96.977 97.2412C96.504 98.0304 95.8458 98.6919 95.0597 99.1682C93.7371 100.06 92.7477 101.367 92.2474 102.884C91.7177 104.392 91.6118 106.977 92.777 109.674C93.5733 111.494 94.9937 112.969 96.7811 113.83C97.8543 114.332 99.0646 114.46 100.218 114.191C101.373 113.841 101.897 113.517 101.85 113.331C101.802 113.145 101.574 113.262 101.151 113.475C100.114 113.97 98.9332 114.068 97.8297 113.751C96.352 113.22 93.9687 111.293 93.1212 108.235C92.2738 105.177 92.8035 102.465 93.3914 101.568C93.955 100.793 94.7159 100.184 95.5946 99.8052C95.7605 99.73 95.9429 99.6989 96.1243 99.7149C96.1637 100.169 96.0891 100.625 95.9071 101.042C95.1709 102.682 95.1498 103.84 95.743 104.997C96.3362 106.154 98.1157 106.961 98.6825 107.29C99.4861 107.775 100.216 108.374 100.849 109.069C101.257 109.649 101.592 110.279 101.844 110.942C101.908 111.16 102.162 110.9 102.062 110.698C101.743 109.912 101.305 109.18 100.764 108.527C100.081 107.794 98.0151 106.213 97.5067 105.74C96.9082 105.209 96.6751 104.148 96.6381 103.33C96.601 102.513 97.0565 101.737 96.9082 100.872C96.7823 100.453 96.6043 100.052 96.3785 99.6778C97.7991 99.4171 99.2659 99.6731 100.515 100.4C102.665 101.621 105.107 105.008 103.804 106.77C102.824 108.097 101.331 106.388 101.325 105.894C101.332 105.788 101.368 105.686 101.43 105.599C101.491 105.512 101.575 105.443 101.672 105.401C101.77 105.359 101.877 105.344 101.982 105.359C102.087 105.374 102.186 105.418 102.268 105.485C102.469 105.735 102.056 105.767 101.929 105.894C101.802 106.021 101.929 106.282 102.205 106.356C102.602 106.462 103.179 105.825 102.591 105.087C102.003 104.349 100.955 105.039 101.061 105.894C101.176 106.312 101.411 106.686 101.739 106.97C102.066 107.253 102.469 107.433 102.898 107.487C103.322 107.422 103.713 107.219 104.01 106.909C104.307 106.599 104.494 106.199 104.54 105.772C104.773 104.079 104.011 102.757 103.158 101.722C102.035 100.528 100.585 99.6953 98.9897 99.3274C98.014 99.1758 97.0264 99.1154 96.0396 99.1469C95.923 99.1469 95.7218 99.1841 96.0396 98.9452C96.5685 98.5119 97.0418 98.0144 97.4484 97.4641C98.2335 96.2751 98.7638 94.9356 99.0055 93.5305C99.2132 92.119 99.1028 90.6788 98.6825 89.3156C98.2746 88.2539 97.7026 87.447 97.3637 87.5266C97.311 87.5481 97.266 87.5849 97.2343 87.6321C97.2026 87.6794 97.1857 87.7351 97.1857 87.7921C97.1857 87.849 97.2026 87.9047 97.2343 87.952C97.266 87.9992 97.311 88.036 97.3637 88.0575C97.7927 88.153 98.1687 88.7688 98.3541 89.4058Z" fill="#FF0000"/>
</g>
<defs>
<clipPath id="clip0_37_628">
<rect width="130" height="130" fill="white"/>
</clipPath>
</defs>
</svg>
